# Blender 4.0.2
# www.blender.org
mtllib magosCrystal_Mesh.mtl
o MagosCrystal
v -3.408897 16.226063 -53.194160
v -7.851032 25.376095 -53.075603
v -4.894344 25.376095 -57.382244
v 0.033162 25.472849 -55.762123
v 0.167142 25.472849 -50.739006
v -4.568673 25.472849 -49.059341
v -7.072316 29.819885 -55.709305
v -2.144711 29.747322 -57.257294
v 0.916188 31.357746 -53.272358
v -1.927845 29.206633 -49.129810
v -6.746544 31.729395 -50.554512
v -3.408897 38.816528 -53.194160
v -0.638223 12.491476 -51.945549
v -1.343720 13.944680 -51.926720
v -0.874139 13.944680 -52.610699
v -0.091554 13.960048 -52.353390
v -0.070276 13.960048 -51.555622
v -0.822417 13.960048 -51.288860
v -1.220044 14.650441 -52.345005
v -0.437443 14.638917 -52.590855
v 0.048687 14.894684 -51.957970
v -0.403001 14.553045 -51.300053
v -1.168304 14.953709 -51.526321
v -0.638223 16.079287 -51.945549
v -5.620522 25.668224 -46.142521
v -6.672175 27.834450 -46.114449
v -5.972193 27.834450 -47.134026
v -4.805630 27.857357 -46.750469
v -4.773912 27.857357 -45.561272
v -5.895093 27.857357 -45.163620
v -6.487817 28.886496 -46.737968
v -5.321230 28.869316 -47.104446
v -4.596579 29.250576 -46.161034
v -5.269888 28.741312 -45.180305
v -6.410691 29.338562 -45.517593
v -5.620522 31.016409 -46.142521
vn -0.7673 -0.3657 -0.5268
vn -0.7191 -0.3568 0.5963
vn 0.2981 -0.3568 -0.8853
vn 0.9346 -0.3548 -0.0249
vn 0.3125 -0.3548 0.8812
vn -0.7676 -0.1166 0.6302
vn -0.8098 -0.1876 -0.5559
vn 0.3108 -0.1688 -0.9354
vn 0.9902 -0.1374 -0.0264
vn 0.3266 -0.2136 0.9207
vn -0.9851 0.1718 -0.0014
vn -0.2903 0.2093 -0.9338
vn 0.7511 0.1585 -0.6409
vn 0.7703 0.1669 0.6155
vn -0.2015 0.1608 0.9662
vn -0.9135 0.3969 -0.0893
vn -0.2747 0.3610 -0.8912
vn 0.6507 0.3842 -0.6550
vn 0.6609 0.3764 0.6492
vn -0.0745 0.3787 0.9225
vn 0.3109 -0.1688 -0.9353
vt 0.673622 0.425299
s 0
usemtl CrystalMat
f 1/1/1 2/1/1 3/1/1
f 2/1/2 1/1/2 6/1/2
f 1/1/3 3/1/3 4/1/3
f 1/1/4 4/1/4 5/1/4
f 1/1/5 5/1/5 6/1/5
f 2/1/6 6/1/6 11/1/6
f 3/1/7 2/1/7 7/1/7
f 4/1/8 3/1/8 8/1/8
f 5/1/9 4/1/9 9/1/9
f 6/1/10 5/1/10 10/1/10
f 2/1/11 11/1/11 7/1/11
f 3/1/12 7/1/12 8/1/12
f 4/1/13 8/1/13 9/1/13
f 5/1/14 9/1/14 10/1/14
f 6/1/15 10/1/15 11/1/15
f 7/1/16 11/1/16 12/1/16
f 8/1/17 7/1/17 12/1/17
f 9/1/18 8/1/18 12/1/18
f 10/1/19 9/1/19 12/1/19
f 11/1/20 10/1/20 12/1/20
f 13/1/1 14/1/1 15/1/1
f 14/1/2 13/1/2 18/1/2
f 13/1/3 15/1/3 16/1/3
f 13/1/4 16/1/4 17/1/4
f 13/1/5 17/1/5 18/1/5
f 14/1/6 18/1/6 23/1/6
f 15/1/7 14/1/7 19/1/7
f 16/1/21 15/1/21 20/1/21
f 17/1/9 16/1/9 21/1/9
f 18/1/10 17/1/10 22/1/10
f 14/1/11 23/1/11 19/1/11
f 15/1/12 19/1/12 20/1/12
f 16/1/13 20/1/13 21/1/13
f 17/1/14 21/1/14 22/1/14
f 18/1/15 22/1/15 23/1/15
f 19/1/16 23/1/16 24/1/16
f 20/1/17 19/1/17 24/1/17
f 21/1/18 20/1/18 24/1/18
f 22/1/19 21/1/19 24/1/19
f 23/1/20 22/1/20 24/1/20
f 25/1/1 26/1/1 27/1/1
f 26/1/2 25/1/2 30/1/2
f 25/1/3 27/1/3 28/1/3
f 25/1/4 28/1/4 29/1/4
f 25/1/5 29/1/5 30/1/5
f 26/1/6 30/1/6 35/1/6
f 27/1/7 26/1/7 31/1/7
f 28/1/21 27/1/21 32/1/21
f 29/1/9 28/1/9 33/1/9
f 30/1/10 29/1/10 34/1/10
f 26/1/11 35/1/11 31/1/11
f 27/1/12 31/1/12 32/1/12
f 28/1/13 32/1/13 33/1/13
f 29/1/14 33/1/14 34/1/14
f 30/1/15 34/1/15 35/1/15
f 31/1/16 35/1/16 36/1/16
f 32/1/17 31/1/17 36/1/17
f 33/1/18 32/1/18 36/1/18
f 34/1/19 33/1/19 36/1/19
f 35/1/20 34/1/20 36/1/20
