# Blender 4.0.2
# www.blender.org
mtllib MagosPlanetPlanes.mtl
o MagosLandScape
v 21.603840 0.514774 23.919220
v 21.603840 2.489449 23.919220
v 21.603840 0.514774 -39.959545
v 21.603840 2.489449 -39.959545
v -40.296070 0.514774 23.919220
v -40.296070 2.489449 23.919220
v -40.296070 0.514774 -39.959545
v -40.296070 2.489449 -39.959545
vn 1.0000 -0.0000 -0.0000
vn -0.0000 -0.0000 -1.0000
vn -1.0000 -0.0000 -0.0000
vn -0.0000 -0.0000 1.0000
vn -0.0000 -1.0000 -0.0000
vn -0.0000 1.0000 -0.0000
vt 0.230708 0.014446
vt 0.230708 0.275756
vt 0.395330 0.279583
vt 0.395330 0.018273
vt 0.230708 0.503915
vt 0.395330 0.507742
vt 0.230708 0.765225
vt 0.395330 0.769052
vt 0.230708 0.993384
vt 0.395330 0.997211
vt 0.914913 0.483558
vt 0.914913 0.023232
vt 0.512987 0.023232
vt 0.512987 0.483558
vt 0.520098 0.504993
vt 0.520098 0.953560
vt 0.911756 0.953560
vt 0.911756 0.504993
s 0
usemtl TerrainPlane
f 1/1/1 3/2/1 4/3/1 2/4/1
f 3/2/2 7/5/2 8/6/2 4/3/2
f 7/5/3 5/7/3 6/8/3 8/6/3
f 5/7/4 1/9/4 2/10/4 6/8/4
f 3/11/5 1/12/5 5/13/5 7/14/5
f 8/15/6 6/16/6 2/17/6 4/18/6
