# Blender 4.0.2
# www.blender.org
mtllib MagosClusterRock_Mesh.mtl
o MagosShrine.001
v -7.822734 2.887636 -55.762825
v -5.981688 2.887636 -54.375984
v -10.824358 2.887636 -51.936638
v -10.352745 2.887636 -54.653137
v -7.822734 11.927804 -55.762825
v -6.453301 11.927804 -51.659489
v -5.981688 11.927804 -54.375984
v -10.824358 11.927804 -51.936638
v -9.040131 11.927804 -50.543850
v -10.352745 11.927804 -54.653137
v -6.377822 2.817677 -51.658646
v -8.907833 2.817677 -50.548958
v -5.430537 3.741413 -60.023693
v -3.589492 3.741413 -58.636852
v -8.432161 3.741413 -56.197510
v -7.960549 3.741413 -58.914001
v -5.430537 12.781581 -60.023693
v -4.061105 12.781581 -55.920357
v -3.589492 12.781581 -58.636852
v -8.432161 12.781581 -56.197510
v -6.647934 12.781581 -54.804718
v -7.960549 12.781581 -58.914001
v -3.985625 3.671453 -55.919514
v -6.515636 3.671453 -54.809826
v -0.678376 3.581973 -59.580158
v 1.162669 3.581973 -58.193317
v -3.680001 3.581973 -55.753971
v -3.208388 3.581973 -58.470467
v -0.678376 9.755625 -59.580158
v 0.691055 9.755625 -55.476822
v 1.162669 9.755625 -58.193317
v -3.680001 9.755625 -55.753971
v -1.895774 9.755625 -54.361183
v -3.208388 9.755625 -58.470467
v 0.766535 3.512013 -55.475983
v -1.763476 3.512013 -54.366291
v -3.147330 3.627107 -55.063866
v -1.306286 3.627107 -53.677025
v -6.148953 3.627107 -51.237682
v -5.677341 3.627107 -53.954178
v -3.147330 8.145304 -55.063866
v -1.777898 8.145304 -50.960529
v -1.306286 8.145304 -53.677025
v -6.148953 8.145304 -51.237682
v -4.364727 8.145304 -49.844894
v -5.677341 8.145304 -53.954178
v -1.702418 3.557148 -50.959690
v -4.232430 3.557148 -49.850002
v 1.681991 3.959551 -55.550007
v 3.523036 3.959551 -54.163166
v -1.319635 3.959551 -51.723824
v -0.848022 3.959551 -54.440319
v 1.681991 10.133203 -55.550007
v 3.051422 10.133203 -51.446671
v 3.523036 10.133203 -54.163166
v -1.319635 10.133203 -51.723824
v 0.464592 10.133203 -50.331032
v -0.848022 10.133203 -54.440319
v 3.126903 3.889592 -51.445831
v 0.596890 3.889592 -50.336143
v -6.439794 3.815877 -51.234421
v -4.598750 3.815877 -49.847580
v -9.441420 3.815877 -47.408234
v -8.969807 3.815877 -50.124729
v -6.439794 9.989529 -51.234421
v -5.070362 9.989529 -47.131081
v -4.598750 9.989529 -49.847580
v -9.441420 9.989529 -47.408234
v -7.657194 9.989529 -46.015446
v -8.969807 9.989529 -50.124729
v -4.994883 3.745918 -47.130241
v -7.524895 3.745918 -46.020554
vn 0.0175 -0.9996 -0.0232
vn -0.0065 -0.9999 -0.0148
vn -0.0000 1.0000 -0.0000
vn -0.6153 -0.0000 0.7883
vn 0.3960 0.0052 0.9182
vn 0.6017 -0.0000 -0.7987
vn 0.9895 0.0082 0.1445
vn -0.9853 -0.0000 -0.1711
vn -0.4017 -0.0000 -0.9158
vn 0.3960 0.0076 0.9182
vn 0.9894 0.0120 0.1445
vn 0.3960 0.0104 0.9182
vn 0.9893 0.0163 0.1446
vn -0.0324 -0.9995 -0.0056
vn -0.5867 -0.0090 0.8098
vn 0.4017 0.0034 0.9158
vn 0.9853 -0.0000 0.1711
vn -0.5867 -0.0131 0.8097
vn 0.4017 0.0050 0.9158
vn -0.5868 -0.0178 0.8095
vn 0.4017 0.0068 0.9158
vt 0.681964 0.129779
vt 0.824165 0.140439
vt 0.758322 0.177433
vt 0.681964 0.039249
vt 0.824165 0.049909
vt 0.801964 0.626100
vt 0.869178 0.501295
vt 0.944642 0.551304
vt 0.879229 0.676619
vt 0.944642 0.641652
vt 0.177403 0.296293
vt 0.141989 0.000454
vt 0.177403 0.000060
vt 0.137946 0.298988
vt 0.049674 0.000456
vt 0.445336 0.592476
vt 0.482330 0.296238
vt 0.482330 0.592476
vt 0.000000 0.296232
vt 0.047416 0.298987
vt 0.532239 0.296238
vt 0.582147 0.000000
vt 0.582147 0.296238
vt 0.354805 0.592476
vt 0.445336 0.296238
vt 0.659763 0.808507
vt 0.801964 0.819167
vt 0.736122 0.856161
vt 0.659763 0.717977
vt 0.801964 0.728637
vt 0.331520 0.894683
vt 0.398733 0.769878
vt 0.474198 0.819887
vt 0.408785 0.945202
vt 0.474198 0.910236
vt 0.354805 0.296293
vt 0.319391 0.000454
vt 0.354805 0.000060
vt 0.315349 0.298988
vt 0.227076 0.000456
vt 0.445336 0.296238
vt 0.482330 0.000000
vt 0.482330 0.296238
vt 0.177403 0.296232
vt 0.224819 0.298987
vt 0.532239 0.000000
vt 0.532239 0.296238
vt 0.354805 0.296238
vt 0.445336 0.000000
vt 0.482330 0.833379
vt 0.624531 0.844039
vt 0.558689 0.881033
vt 0.482330 0.742849
vt 0.624531 0.753509
vt 0.801964 0.801424
vt 0.869178 0.676619
vt 0.944642 0.726628
vt 0.879229 0.851943
vt 0.944642 0.816976
vt 0.177403 0.501350
vt 0.141989 0.299442
vt 0.177403 0.299049
vt 0.137946 0.504045
vt 0.049674 0.299444
vt 0.572860 0.703600
vt 0.609855 0.501295
vt 0.609855 0.703600
vt 0.000000 0.501289
vt 0.047416 0.504044
vt 0.632055 0.202305
vt 0.681964 0.000000
vt 0.681964 0.202305
vt 0.482330 0.703600
vt 0.572860 0.501295
vt 0.000000 0.836129
vt 0.142201 0.846789
vt 0.076359 0.883783
vt 0.000000 0.745599
vt 0.142201 0.756259
vt 0.824164 0.124805
vt 0.891378 -0.000000
vt 0.966842 0.050009
vt 0.901430 0.175324
vt 0.966842 0.140357
vt 0.334215 0.769878
vt 0.481876 0.734464
vt 0.482270 0.769878
vt 0.331520 0.730422
vt 0.481874 0.642149
vt 0.892494 1.000000
vt 0.929489 0.851943
vt 0.929489 1.000000
vt 0.334276 0.592476
vt 0.331521 0.639892
vt 0.255049 0.652103
vt 0.304958 0.504045
vt 0.304958 0.652103
vt 0.801964 1.000000
vt 0.892494 0.851943
vt 0.659733 0.426017
vt 0.801934 0.436677
vt 0.736091 0.473671
vt 0.659733 0.335487
vt 0.801934 0.346147
vt 0.142201 0.831155
vt 0.209414 0.706350
vt 0.284879 0.756359
vt 0.219466 0.881674
vt 0.284879 0.846708
vt 0.354805 0.501350
vt 0.319391 0.299442
vt 0.354805 0.299049
vt 0.315349 0.504045
vt 0.227076 0.299444
vt 0.090530 0.706350
vt 0.127525 0.504045
vt 0.127525 0.706350
vt 0.177403 0.501289
vt 0.224819 0.504044
vt 0.582147 0.202305
vt 0.632055 0.000000
vt 0.632055 0.202305
vt 0.000000 0.706350
vt 0.090530 0.504045
vt 0.659763 0.631074
vt 0.801964 0.641734
vt 0.736122 0.678728
vt 0.659763 0.540544
vt 0.801964 0.551204
vt 0.801934 0.421043
vt 0.869147 0.296238
vt 0.944611 0.346247
vt 0.879199 0.471562
vt 0.944611 0.436595
vt 0.659733 0.498599
vt 0.624319 0.296692
vt 0.659733 0.296298
vt 0.620276 0.501295
vt 0.532004 0.296694
vt 0.218055 0.706350
vt 0.255049 0.504045
vt 0.255049 0.706350
vt 0.482330 0.498539
vt 0.529747 0.501293
vt 0.609855 0.703600
vt 0.659763 0.501295
vt 0.659763 0.703600
vt 0.127525 0.706350
vt 0.218055 0.504045
vt 0.748862 0.000000
vt 0.801964 0.535751
vt 0.000000 0.000000
vt 0.354805 0.296238
vt 0.726661 0.678728
vt 0.331520 0.804334
vt 0.177403 0.000000
vt 0.354805 0.000000
vt 0.549228 0.703600
vt 0.801964 0.711075
vt 0.000000 0.298988
vt 0.632055 0.000000
vt 0.482330 0.501295
vt 0.066898 0.706350
vt 0.824164 0.034456
vt 0.801964 0.851943
vt 0.726631 0.296238
vt 0.142201 0.740806
vt 0.177403 0.298988
vt 0.582147 0.000000
vt 0.000000 0.504045
vt 0.726661 0.501295
vt 0.801934 0.330694
vt 0.609855 0.501295
vt 0.127525 0.504045
s 0
usemtl RockClusterMat
f 11/1/1 1/2/1 2/3/1
f 12/4/2 4/5/2 11/1/2
f 6/6/3 5/7/3 10/8/3
f 9/9/3 10/8/3 8/10/3
f 3/11/4 9/12/4 8/13/4
f 12/14/5 6/15/5 9/12/5
f 1/16/6 7/17/6 2/18/6
f 2/19/7 6/15/7 11/20/7
f 3/21/8 10/22/8 4/23/8
f 4/24/9 5/25/9 1/16/9
f 23/26/1 13/27/1 14/28/1
f 24/29/2 16/30/2 23/26/2
f 18/31/3 17/32/3 22/33/3
f 21/34/3 22/33/3 20/35/3
f 15/36/4 21/37/4 20/38/4
f 24/39/5 18/40/5 21/37/5
f 13/41/6 19/42/6 14/43/6
f 14/44/7 18/40/7 23/45/7
f 15/43/8 22/46/8 16/47/8
f 16/48/9 17/49/9 13/41/9
f 35/50/1 25/51/1 26/52/1
f 36/53/2 28/54/2 35/50/2
f 30/55/3 29/56/3 34/57/3
f 33/58/3 34/57/3 32/59/3
f 27/60/4 33/61/4 32/62/4
f 36/63/10 30/64/10 33/61/10
f 25/65/6 31/66/6 26/67/6
f 26/68/11 30/64/11 35/69/11
f 27/70/8 34/71/8 28/72/8
f 28/73/9 29/74/9 25/65/9
f 47/75/1 37/76/1 38/77/1
f 48/78/2 40/79/2 47/75/2
f 42/80/3 41/81/3 46/82/3
f 45/83/3 46/82/3 44/84/3
f 39/85/4 45/86/4 44/87/4
f 48/88/12 42/89/12 45/86/12
f 37/90/6 43/91/6 38/92/6
f 38/93/13 42/89/13 47/94/13
f 39/95/8 46/96/8 40/97/8
f 40/98/9 41/99/9 37/90/9
f 59/100/1 49/101/1 50/102/1
f 60/103/2 52/104/2 59/100/2
f 54/105/3 53/106/3 58/107/3
f 57/108/3 58/107/3 56/109/3
f 51/110/4 57/111/4 56/112/4
f 60/113/10 54/114/10 57/111/10
f 49/115/6 55/116/6 50/117/6
f 50/118/11 54/114/11 59/119/11
f 51/120/8 58/121/8 52/122/8
f 52/123/9 53/124/9 49/115/9
f 71/125/1 61/126/1 62/127/1
f 72/128/2 64/129/2 71/125/2
f 66/130/3 65/131/3 70/132/3
f 69/133/3 70/132/3 68/134/3
f 63/135/4 69/136/4 68/137/4
f 72/138/10 66/139/10 69/136/10
f 61/140/6 67/141/6 62/142/6
f 62/143/11 66/139/11 71/144/11
f 63/145/8 70/146/8 64/147/8
f 64/148/9 65/149/9 61/140/9
f 11/1/2 4/5/2 1/2/2
f 12/4/14 3/150/14 4/5/14
f 6/6/3 7/151/3 5/7/3
f 9/9/3 6/6/3 10/8/3
f 3/11/15 12/14/15 9/12/15
f 12/14/16 11/20/16 6/15/16
f 1/16/6 5/25/6 7/17/6
f 2/19/17 7/152/17 6/15/17
f 3/21/8 8/46/8 10/22/8
f 4/24/9 10/153/9 5/25/9
f 23/26/2 16/30/2 13/27/2
f 24/29/14 15/154/14 16/30/14
f 18/31/3 19/155/3 17/32/3
f 21/34/3 18/31/3 22/33/3
f 15/36/15 24/39/15 21/37/15
f 24/39/16 23/45/16 18/40/16
f 13/41/6 17/49/6 19/42/6
f 14/44/17 19/156/17 18/40/17
f 15/43/8 20/42/8 22/46/8
f 16/48/9 22/157/9 17/49/9
f 35/50/2 28/54/2 25/51/2
f 36/53/14 27/158/14 28/54/14
f 30/55/3 31/159/3 29/56/3
f 33/58/3 30/55/3 34/57/3
f 27/60/18 36/63/18 33/61/18
f 36/63/19 35/69/19 30/64/19
f 25/65/6 29/74/6 31/66/6
f 26/68/17 31/160/17 30/64/17
f 27/70/8 32/161/8 34/71/8
f 28/73/9 34/162/9 29/74/9
f 47/75/2 40/79/2 37/76/2
f 48/78/14 39/163/14 40/79/14
f 42/80/3 43/164/3 41/81/3
f 45/83/3 42/80/3 46/82/3
f 39/85/20 48/88/20 45/86/20
f 48/88/21 47/94/21 42/89/21
f 37/90/6 41/99/6 43/91/6
f 38/93/17 43/18/17 42/89/17
f 39/95/8 44/141/8 46/96/8
f 40/98/9 46/165/9 41/99/9
f 59/100/2 52/104/2 49/101/2
f 60/103/14 51/166/14 52/104/14
f 54/105/3 55/167/3 53/106/3
f 57/108/3 54/105/3 58/107/3
f 51/110/18 60/113/18 57/111/18
f 60/113/19 59/119/19 54/114/19
f 49/115/6 53/124/6 55/116/6
f 50/118/17 55/168/17 54/114/17
f 51/120/8 56/169/8 58/121/8
f 52/123/9 58/170/9 53/124/9
f 71/125/2 64/129/2 61/126/2
f 72/128/14 63/171/14 64/129/14
f 66/130/3 67/172/3 65/131/3
f 69/133/3 66/130/3 70/132/3
f 63/135/18 72/138/18 69/136/18
f 72/138/19 71/144/19 66/139/19
f 61/140/6 65/149/6 67/141/6
f 62/143/17 67/17/17 66/139/17
f 63/145/8 68/173/8 70/146/8
f 64/148/9 70/174/9 65/149/9
