# Blender 4.0.2
# www.blender.org
mtllib MagosTerrainBoard_Mesh.mtl
o MagosMainPlatform
v -25.968941 -0.476129 3.599363
v -25.246889 0.496129 2.877312
v -25.968941 -0.476129 -25.568365
v -25.246889 0.496129 -24.846313
v 3.198788 -0.476129 3.599363
v 2.476736 0.496129 2.877312
v 3.198788 -0.476129 -25.568365
v 2.476736 0.496129 -24.846313
v -23.878834 0.496129 1.509257
v -23.878834 0.496129 -23.478260
v 1.108682 0.496129 -23.478260
v 1.108682 0.496129 1.509257
v -23.878834 0.234400 1.509257
v -23.878834 0.234400 -23.478260
v 1.108682 0.234400 -23.478260
v 1.108682 0.234400 1.509257
vn -0.8028 0.5962 -0.0000
vn -0.0000 0.5962 -0.8028
vn 0.8028 0.5962 -0.0000
vn -0.0000 0.5962 0.8028
vn -0.0000 -1.0000 -0.0000
vn -0.0000 1.0000 -0.0000
vn -1.0000 -0.0000 -0.0000
vn 1.0000 -0.0000 -0.0000
vn -0.0000 -0.0000 -1.0000
vn -0.0000 -0.0000 1.0000
vt 0.146959 0.019423
vt 0.980897 0.484605
vt 0.949647 0.449449
s 0
usemtl Pallet
f 1/1/1 2/1/1 4/1/1 3/1/1
f 3/1/2 4/1/2 8/1/2 7/1/2
f 7/2/3 8/2/3 6/2/3 5/2/3
f 5/2/4 6/2/4 2/2/4 1/2/4
f 3/2/5 7/2/5 5/2/5 1/2/5
f 8/1/6 4/1/6 10/1/6 11/1/6
f 12/1/7 11/1/7 15/1/7 16/1/7
f 6/1/6 8/1/6 11/1/6 12/1/6
f 4/1/6 2/1/6 9/1/6 10/1/6
f 2/1/6 6/1/6 12/1/6 9/1/6
f 15/3/6 14/3/6 13/3/6 16/3/6
f 10/2/8 9/2/8 13/2/8 14/2/8
f 9/1/9 12/1/9 16/1/9 13/1/9
f 11/2/10 10/2/10 14/2/10 15/2/10
