# Blender 4.0.2
# www.blender.org
mtllib MagosSingleRock_Mesh.mtl
o MagosRockSingle
v -0.665051 3.793431 -6.165107
v -1.740142 3.793431 -6.974962
v 1.087768 3.793431 -8.399436
v 0.812367 3.793431 -6.813118
v -0.665051 7.398576 -6.165107
v -1.464739 7.398576 -8.561278
v -1.740142 7.398576 -6.974962
v 1.087768 7.398576 -8.399436
v 0.045858 7.398576 -9.212764
v 0.812367 7.398576 -6.813118
v -1.508817 3.752578 -8.561769
v -0.031399 3.752578 -9.209780
vn -0.0011 -0.9998 0.0174
vn 0.0150 -0.9998 0.0118
vn -0.0000 1.0000 -0.0000
vn 0.6007 -0.0067 -0.7994
vn -0.3988 0.0063 -0.9170
vn -0.6017 -0.0000 0.7987
vn -0.9875 0.0060 -0.1578
vn 0.9853 -0.0000 0.1711
vn 0.4017 -0.0000 0.9158
vt 0.840172 0.872981
vt 0.466355 0.663018
vt 0.466355 0.901003
vt 0.639441 0.998253
vt 0.840172 0.634995
vt 0.664311 0.531817
vt 0.375071 0.867195
vt 0.375071 0.629687
vt 0.198380 0.539109
vt -0.000000 0.670572
vt 0.171956 1.000000
vt 0.000000 0.908080
vt 0.000000 0.531973
vt 0.103723 0.539109
vt 0.093096 0.001250
vt 0.000000 0.000166
vt 0.341707 0.539104
vt 0.335773 0.001254
vt 0.466355 0.531817
vt 0.563606 0.531817
vt 0.563606 0.000000
vt 0.466355 0.000000
vt 0.466355 0.531807
vt 0.466355 -0.000000
vt 0.801592 0.531817
vt 0.932791 0.531817
vt 0.932791 0.000000
vt 0.801592 0.000000
vt 0.801591 0.531817
vt 0.801591 0.000000
s 0
usemtl BlackSand1k
f 11/1/1 4/2/1 1/3/1 2/4/1
f 12/5/2 3/6/2 4/2/2 11/1/2
f 6/7/3 7/8/3 5/9/3 10/10/3
f 9/11/3 6/7/3 10/10/3 8/12/3
f 3/13/4 12/14/4 9/15/4 8/16/4
f 12/14/5 11/17/5 6/18/5 9/15/5
f 2/19/6 1/20/6 5/21/6 7/22/6
f 11/17/7 2/23/7 7/24/7 6/18/7
f 4/25/8 3/26/8 8/27/8 10/28/8
f 1/20/9 4/29/9 10/30/9 5/21/9
